<svg xmlns="http://www.w3.org/2000/svg" viewBox="0 0 48 48"><title>26. One wheel</title><g id="_26._One_wheel" data-name="26. One wheel"><path d="M28,19.58v4.26a10.17,10.17,0,0,1,2.32,1.42C26,29.59,26.1,29.61,26,29.56V10H22c0,20.21.08,19.51,0,19.56l-4.3-4.3A10.17,10.17,0,0,1,20,23.84V19.58a14,14,0,1,0,8,0ZM33.94,32H27.86a3.81,3.81,0,0,0-.43-1l4.3-4.3A9.9,9.9,0,0,1,33.94,32ZM24,35a1.94,1.94,0,0,1-1.41-.59A2,2,0,1,1,24,35Zm-2,1.43a4.17,4.17,0,0,0,1,.43V43a10,10,0,0,1-5.32-2.21Zm3,.43a4.17,4.17,0,0,0,1-.43l4.3,4.31A10,10,0,0,1,25,43ZM16.27,26.68l4.3,4.3a3.81,3.81,0,0,0-.43,1H14.06A9.9,9.9,0,0,1,16.27,26.68ZM14.05,34h6.09a4.17,4.17,0,0,0,.43,1l-4.31,4.3A10,10,0,0,1,14.05,34Zm17.69,5.32L27.43,35a4.17,4.17,0,0,0,.43-1H34A10,10,0,0,1,31.74,39.32Z"/><path d="M19.9,8h9.8a2.3,2.3,0,0,0,.43-4.56L20.5,1.61A3.22,3.22,0,1,0,19.9,8Z"/></g></svg>